<svg xmlns="http://www.w3.org/2000/svg">
  <g id="profile">
    <path
      d="M21.0082 3C21.556 3 22 3.44495 22 3.9934V20.0066C22 20.5552 21.5447 21 21.0082 21H2.9918C2.44405 21 2 20.5551 2 20.0066V3.9934C2 3.44476 2.45531 3 2.9918 3H21.0082ZM20 5H4V19H20V5ZM18 15V17H6V15H18ZM12 7V13H6V7H12ZM18 11V13H14V11H18ZM10 9H8V11H10V9ZM18 7V9H14V7H18Z"
    />
  </g>
  <g id="messages">
    <path
      d="M6.45455 19L2 22.5V4C2 3.44772 2.44772 3 3 3H21C21.5523 3 22 3.44772 22 4V18C22 18.5523 21.5523 19 21 19H6.45455ZM5.76282 17H20V5H4V18.3851L5.76282 17ZM11 10H13V12H11V10ZM7 10H9V12H7V10ZM15 10H17V12H15V10Z"
    />
  </g>
  <g id="news">
    <path
      d="M16 20V4H4V19C4 19.5523 4.44772 20 5 20H16ZM19 22H5C3.34315 22 2 20.6569 2 19V3C2 2.44772 2.44772 2 3 2H17C17.5523 2 18 2.44772 18 3V10H22V19C22 20.6569 20.6569 22 19 22ZM18 12V19C18 19.5523 18.4477 20 19 20C19.5523 20 20 19.5523 20 19V12H18ZM6 6H12V12H6V6ZM8 8V10H10V8H8ZM6 13H14V15H6V13ZM6 16H14V18H6V16Z"
    />
  </g>
  <g id="music">
    <path
      d="M20 3V17C20 19.2091 18.2091 21 16 21C13.7909 21 12 19.2091 12 17C12 14.7909 13.7909 13 16 13C16.7286 13 17.4117 13.1948 18 13.5351V5H9V17C9 19.2091 7.20914 21 5 21C2.79086 21 1 19.2091 1 17C1 14.7909 2.79086 13 5 13C5.72857 13 6.41165 13.1948 7 13.5351V3H20ZM5 19C6.10457 19 7 18.1046 7 17C7 15.8954 6.10457 15 5 15C3.89543 15 3 15.8954 3 17C3 18.1046 3.89543 19 5 19ZM16 19C17.1046 19 18 18.1046 18 17C18 15.8954 17.1046 15 16 15C14.8954 15 14 15.8954 14 17C14 18.1046 14.8954 19 16 19Z"
    />
  </g>
  <g id="settings">
    <path
      d="M8.68735 4.00008L11.294 1.39348C11.6845 1.00295 12.3176 1.00295 12.7082 1.39348L15.3148 4.00008H19.0011C19.5533 4.00008 20.0011 4.4478 20.0011 5.00008V8.68637L22.6077 11.293C22.9982 11.6835 22.9982 12.3167 22.6077 12.7072L20.0011 15.3138V19.0001C20.0011 19.5524 19.5533 20.0001 19.0011 20.0001H15.3148L12.7082 22.6067C12.3176 22.9972 11.6845 22.9972 11.294 22.6067L8.68735 20.0001H5.00106C4.44877 20.0001 4.00106 19.5524 4.00106 19.0001V15.3138L1.39446 12.7072C1.00393 12.3167 1.00393 11.6835 1.39446 11.293L4.00106 8.68637V5.00008C4.00106 4.4478 4.44877 4.00008 5.00106 4.00008H8.68735ZM6.00106 6.00008V9.5148L3.51578 12.0001L6.00106 14.4854V18.0001H9.51578L12.0011 20.4854L14.4863 18.0001H18.0011V14.4854L20.4863 12.0001L18.0011 9.5148V6.00008H14.4863L12.0011 3.5148L9.51578 6.00008H6.00106ZM12.0011 16.0001C9.79192 16.0001 8.00106 14.2092 8.00106 12.0001C8.00106 9.79094 9.79192 8.00008 12.0011 8.00008C14.2102 8.00008 16.0011 9.79094 16.0011 12.0001C16.0011 14.2092 14.2102 16.0001 12.0011 16.0001ZM12.0011 14.0001C13.1056 14.0001 14.0011 13.1047 14.0011 12.0001C14.0011 10.8955 13.1056 10.0001 12.0011 10.0001C10.8965 10.0001 10.0011 10.8955 10.0011 12.0001C10.0011 13.1047 10.8965 14.0001 12.0011 14.0001Z"
    />
  </g>
</svg>
